<mxfile host="app.diagrams.net" modified="2023-07-17T09:49:24.877Z" agent="Mozilla/5.0 (Windows NT 10.0; Win64; x64) AppleWebKit/537.36 (KHTML, like Gecko) Chrome/108.0.0.0 Safari/537.36" etag="jVjd4IfsKbNNq6jxwesT" version="21.1.1" type="github">
  <diagram id="Zx5FIfAz9numawKvm74N" name="Page-1">
    <mxGraphModel dx="1985" dy="-329" grid="0" gridSize="10" guides="1" tooltips="1" connect="1" arrows="1" fold="1" page="1" pageScale="1" pageWidth="827" pageHeight="1169" math="0" shadow="0">
      <root>
        <mxCell id="0" />
        <mxCell id="1" parent="0" />
        <mxCell id="XxR-sLYArLXXmIyx7Kuv-19" value="" style="edgeStyle=orthogonalEdgeStyle;rounded=0;orthogonalLoop=1;jettySize=auto;html=1;labelBackgroundColor=none;fontColor=default;sketch=1;curveFitting=1;jiggle=2;" edge="1" parent="1" source="XxR-sLYArLXXmIyx7Kuv-1" target="XxR-sLYArLXXmIyx7Kuv-18">
          <mxGeometry relative="1" as="geometry" />
        </mxCell>
        <mxCell id="XxR-sLYArLXXmIyx7Kuv-1" value="&lt;p style=&quot;text-align: center; margin: 4px 0px 0px;&quot;&gt;&lt;b&gt;TaskWrapper&lt;/b&gt;&lt;/p&gt;&lt;hr style=&quot;text-align: center;&quot; size=&quot;1&quot;&gt;&lt;p style=&quot;margin:0px;margin-left:4px;&quot;&gt;&lt;br&gt;&lt;/p&gt;&lt;p style=&quot;margin:0px;margin-left:4px;&quot;&gt;+ mailBox:Channel&lt;/p&gt;&lt;hr size=&quot;1&quot;&gt;&lt;p style=&quot;margin:0px;margin-left:4px;&quot;&gt;+ build()&lt;/p&gt;" style="verticalAlign=top;align=left;overflow=fill;fontSize=12;fontFamily=Helvetica;html=1;whiteSpace=wrap;labelBackgroundColor=none;rounded=0;sketch=1;curveFitting=1;jiggle=2;" vertex="1" parent="1">
          <mxGeometry x="430" y="1690" width="150" height="121" as="geometry" />
        </mxCell>
        <mxCell id="XxR-sLYArLXXmIyx7Kuv-7" value="&lt;pre style=&quot;text-align: center; background-color: rgb(255, 255, 255); color: rgb(8, 8, 8); font-family: &amp;quot;JetBrains Mono&amp;quot;, monospace;&quot;&gt;&lt;font style=&quot;font-size: 9px;&quot;&gt;&lt;b&gt; WeightedDirectedAcyclicGraph&lt;/b&gt;&lt;/font&gt;&lt;/pre&gt;&lt;hr size=&quot;1&quot;&gt;&lt;p style=&quot;margin:0px;margin-left:4px;&quot;&gt;+ batchNo:int&lt;/p&gt;&lt;p style=&quot;margin:0px;margin-left:4px;&quot;&gt;+ taskResultMap:Map&amp;lt;String,Map&amp;lt;String，Obj&amp;gt;&amp;gt;&lt;/p&gt;&lt;p style=&quot;margin:0px;margin-left:4px;&quot;&gt;+ channelChannelMap:Map&amp;lt;String,Map&amp;lt;String,Cahnnel&amp;gt;&lt;/p&gt;&lt;hr size=&quot;1&quot;&gt;&lt;p style=&quot;margin:0px;margin-left:4px;&quot;&gt;+ simpleSync():&lt;/p&gt;&lt;p style=&quot;margin:0px;margin-left:4px;&quot;&gt;+ channelSync():&lt;/p&gt;&lt;p style=&quot;margin:0px;margin-left:4px;&quot;&gt;+ actorSync():&lt;/p&gt;" style="verticalAlign=top;align=left;overflow=fill;fontSize=12;fontFamily=Helvetica;html=1;whiteSpace=wrap;labelBackgroundColor=none;rounded=0;sketch=1;curveFitting=1;jiggle=2;" vertex="1" parent="1">
          <mxGeometry x="10" y="1690" width="310" height="170" as="geometry" />
        </mxCell>
        <mxCell id="XxR-sLYArLXXmIyx7Kuv-14" value="0..n" style="text;html=1;align=center;verticalAlign=middle;resizable=0;points=[];autosize=1;strokeColor=none;fillColor=none;labelBackgroundColor=none;rounded=0;sketch=1;curveFitting=1;jiggle=2;" vertex="1" parent="1">
          <mxGeometry x="330" y="1715" width="40" height="30" as="geometry" />
        </mxCell>
        <mxCell id="XxR-sLYArLXXmIyx7Kuv-18" value="&lt;p style=&quot;text-align: center; background-color: rgb(255, 255, 255); color: rgb(8, 8, 8);&quot;&gt;&lt;b style=&quot;&quot;&gt;&lt;font style=&quot;font-size: 6px;&quot;&gt;NodeResult&lt;/font&gt;&lt;/b&gt;&lt;/p&gt;&lt;hr size=&quot;1&quot;&gt;&lt;p style=&quot;margin:0px;margin-left:4px;&quot;&gt;+ exitCode:int&lt;/p&gt;&lt;p style=&quot;margin:0px;margin-left:4px;&quot;&gt;+ taskResult:Object&lt;/p&gt;&lt;p style=&quot;margin:0px;margin-left:4px;&quot;&gt;+ batchNo:int&lt;/p&gt;&lt;hr size=&quot;1&quot;&gt;&lt;p style=&quot;margin:0px;margin-left:4px;&quot;&gt;&lt;br&gt;&lt;/p&gt;" style="verticalAlign=top;align=left;overflow=fill;fontSize=12;fontFamily=Helvetica;html=1;whiteSpace=wrap;labelBackgroundColor=none;rounded=0;sketch=1;curveFitting=1;jiggle=2;" vertex="1" parent="1">
          <mxGeometry x="630" y="1702.5" width="140" height="96" as="geometry" />
        </mxCell>
        <mxCell id="XxR-sLYArLXXmIyx7Kuv-20" value="&lt;pre style=&quot;text-align: center; background-color: rgb(255, 255, 255); color: rgb(8, 8, 8);&quot;&gt;&lt;b style=&quot;&quot;&gt;&lt;font style=&quot;font-size: 6px;&quot; face=&quot;Helvetica&quot;&gt;GraphScheduler&lt;/font&gt;&lt;/b&gt;&lt;/pre&gt;&lt;hr style=&quot;text-align: center;&quot; size=&quot;1&quot;&gt;&lt;p style=&quot;margin:0px;margin-left:4px;&quot;&gt;+ scope:&amp;nbsp;CoroutineScope&lt;/p&gt;&lt;p style=&quot;margin:0px;margin-left:4px;&quot;&gt;+ mode: int&lt;/p&gt;&lt;hr size=&quot;1&quot;&gt;&lt;p style=&quot;margin:0px;margin-left:4px;&quot;&gt;&lt;br&gt;&lt;/p&gt;" style="verticalAlign=top;align=left;overflow=fill;fontSize=12;fontFamily=Helvetica;html=1;whiteSpace=wrap;labelBackgroundColor=none;rounded=0;sketch=1;curveFitting=1;jiggle=2;" vertex="1" parent="1">
          <mxGeometry x="350" y="1399" width="230" height="121" as="geometry" />
        </mxCell>
        <mxCell id="XxR-sLYArLXXmIyx7Kuv-24" value="1" style="endArrow=open;html=1;endSize=12;startArrow=diamondThin;startSize=14;startFill=0;edgeStyle=orthogonalEdgeStyle;align=left;verticalAlign=bottom;rounded=0;exitX=1;exitY=0.414;exitDx=0;exitDy=0;entryX=0;entryY=0.581;entryDx=0;entryDy=0;entryPerimeter=0;exitPerimeter=0;labelBackgroundColor=none;fontColor=default;sketch=1;curveFitting=1;jiggle=2;" edge="1" parent="1" source="XxR-sLYArLXXmIyx7Kuv-7" target="XxR-sLYArLXXmIyx7Kuv-1">
          <mxGeometry x="-1" y="3" relative="1" as="geometry">
            <mxPoint x="390" y="1924.58" as="sourcePoint" />
            <mxPoint x="390" y="1760" as="targetPoint" />
            <Array as="points" />
          </mxGeometry>
        </mxCell>
        <mxCell id="XxR-sLYArLXXmIyx7Kuv-26" value="&lt;pre style=&quot;text-align: center; background-color: rgb(255, 255, 255); color: rgb(8, 8, 8); font-family: &amp;quot;JetBrains Mono&amp;quot;, monospace;&quot;&gt;&lt;b&gt;&lt;i&gt;IGraph&lt;/i&gt;&lt;/b&gt;&lt;/pre&gt;&lt;hr size=&quot;1&quot;&gt;&lt;p style=&quot;margin:0px;margin-left:4px;&quot;&gt;+ concurrency: int&lt;br&gt;+ adjacencyListMap:Map&amp;lt;String,List&amp;lt;Edge&amp;gt;&amp;gt;&lt;/p&gt;&lt;p style=&quot;border-color: var(--border-color); margin: 0px 0px 0px 4px;&quot;&gt;+ PreAdjacencyListMap:Map&amp;lt;String,List&amp;lt;Edge&amp;gt;&amp;gt;&lt;/p&gt;&lt;p style=&quot;border-color: var(--border-color); margin: 0px 0px 0px 4px;&quot;&gt;+ state:int&lt;/p&gt;&lt;hr size=&quot;1&quot;&gt;&lt;p style=&quot;margin:0px;margin-left:4px;&quot;&gt;+ addNode(TaskWrapper)&lt;br&gt;+ addEdge(TaskWrapper, TaskWrapper)&lt;/p&gt;&lt;p style=&quot;margin:0px;margin-left:4px;&quot;&gt;+ toDotDesc()：String&lt;/p&gt;&lt;p style=&quot;margin:0px;margin-left:4px;&quot;&gt;&lt;br&gt;&lt;/p&gt;&lt;p style=&quot;margin:0px;margin-left:4px;&quot;&gt;&lt;br&gt;&lt;/p&gt;" style="verticalAlign=top;align=left;overflow=fill;fontSize=12;fontFamily=Helvetica;html=1;whiteSpace=wrap;labelBackgroundColor=none;rounded=0;sketch=1;curveFitting=1;jiggle=2;" vertex="1" parent="1">
          <mxGeometry x="20" y="1490" width="270" height="160" as="geometry" />
        </mxCell>
        <mxCell id="XxR-sLYArLXXmIyx7Kuv-28" value="&lt;pre style=&quot;text-align: center; background-color: rgb(255, 255, 255); color: rgb(8, 8, 8); font-family: &amp;quot;JetBrains Mono&amp;quot;, monospace;&quot;&gt;&lt;font style=&quot;font-size: 6px;&quot;&gt;&lt;b&gt;DirectedAcyclicGraph&lt;/b&gt;&lt;/font&gt;&lt;/pre&gt;&lt;hr style=&quot;text-align: center;&quot; size=&quot;1&quot;&gt;&lt;p style=&quot;margin:0px;margin-left:4px;&quot;&gt;&lt;/p&gt;&lt;p style=&quot;margin:0px;margin-left:4px;&quot;&gt;&lt;br&gt;&lt;/p&gt;" style="verticalAlign=top;align=left;overflow=fill;fontSize=12;fontFamily=Helvetica;html=1;whiteSpace=wrap;labelBackgroundColor=none;rounded=0;sketch=1;curveFitting=1;jiggle=2;" vertex="1" parent="1">
          <mxGeometry x="65" y="1930" width="160" height="90" as="geometry" />
        </mxCell>
        <mxCell id="XxR-sLYArLXXmIyx7Kuv-38" value="" style="endArrow=block;dashed=1;endFill=0;endSize=12;html=1;rounded=0;entryX=0.5;entryY=1;entryDx=0;entryDy=0;exitX=0.473;exitY=0.002;exitDx=0;exitDy=0;exitPerimeter=0;labelBackgroundColor=none;fontColor=default;sketch=1;curveFitting=1;jiggle=2;" edge="1" parent="1" source="XxR-sLYArLXXmIyx7Kuv-7" target="XxR-sLYArLXXmIyx7Kuv-26">
          <mxGeometry width="160" relative="1" as="geometry">
            <mxPoint x="145" y="1690" as="sourcePoint" />
            <mxPoint x="530" y="1610" as="targetPoint" />
          </mxGeometry>
        </mxCell>
        <mxCell id="XxR-sLYArLXXmIyx7Kuv-40" value="Extends" style="endArrow=block;endSize=16;endFill=0;html=1;rounded=0;entryX=0.473;entryY=0.997;entryDx=0;entryDy=0;entryPerimeter=0;exitX=0.573;exitY=0;exitDx=0;exitDy=0;exitPerimeter=0;labelBackgroundColor=none;fontColor=default;sketch=1;curveFitting=1;jiggle=2;" edge="1" parent="1" source="XxR-sLYArLXXmIyx7Kuv-28" target="XxR-sLYArLXXmIyx7Kuv-7">
          <mxGeometry width="160" relative="1" as="geometry">
            <mxPoint x="290" y="1960" as="sourcePoint" />
            <mxPoint x="450" y="1960" as="targetPoint" />
          </mxGeometry>
        </mxCell>
        <mxCell id="XxR-sLYArLXXmIyx7Kuv-44" value="&lt;p style=&quot;margin:0px;margin-top:4px;text-align:center;&quot;&gt;&lt;b style=&quot;&quot;&gt;&lt;i&gt;ITask&lt;/i&gt;&lt;/b&gt;&lt;/p&gt;&lt;hr size=&quot;1&quot;&gt;&lt;p style=&quot;border-color: var(--border-color); margin: 0px 0px 0px 4px;&quot;&gt;+ groupName: String&lt;/p&gt;&lt;p style=&quot;border-color: var(--border-color); margin: 0px 0px 0px 4px;&quot;&gt;+ tagName:String&lt;/p&gt;&lt;hr size=&quot;1&quot;&gt;&lt;p style=&quot;margin:0px;margin-left:4px;&quot;&gt;&lt;br&gt;&lt;/p&gt;" style="verticalAlign=top;align=left;overflow=fill;fontSize=12;fontFamily=Helvetica;html=1;whiteSpace=wrap;labelBackgroundColor=none;rounded=0;sketch=1;curveFitting=1;jiggle=2;" vertex="1" parent="1">
          <mxGeometry x="550" y="1525" width="190" height="90" as="geometry" />
        </mxCell>
        <mxCell id="XxR-sLYArLXXmIyx7Kuv-45" value="" style="endArrow=block;dashed=1;endFill=0;endSize=12;html=1;rounded=0;entryX=0.528;entryY=1.002;entryDx=0;entryDy=0;entryPerimeter=0;exitX=0.5;exitY=0;exitDx=0;exitDy=0;labelBackgroundColor=none;fontColor=default;sketch=1;curveFitting=1;jiggle=2;" edge="1" parent="1" source="XxR-sLYArLXXmIyx7Kuv-1" target="XxR-sLYArLXXmIyx7Kuv-44">
          <mxGeometry width="160" relative="1" as="geometry">
            <mxPoint x="380" y="1550" as="sourcePoint" />
            <mxPoint x="540" y="1550" as="targetPoint" />
            <Array as="points">
              <mxPoint x="505" y="1660" />
              <mxPoint x="650" y="1660" />
            </Array>
          </mxGeometry>
        </mxCell>
        <mxCell id="XxR-sLYArLXXmIyx7Kuv-46" value="name" style="endArrow=block;endFill=1;html=1;edgeStyle=orthogonalEdgeStyle;align=left;verticalAlign=top;rounded=0;entryX=1;entryY=0.5;entryDx=0;entryDy=0;exitX=0.5;exitY=1;exitDx=0;exitDy=0;labelBackgroundColor=none;fontColor=default;sketch=1;curveFitting=1;jiggle=2;" edge="1" parent="1" source="XxR-sLYArLXXmIyx7Kuv-20" target="XxR-sLYArLXXmIyx7Kuv-26">
          <mxGeometry x="-1" relative="1" as="geometry">
            <mxPoint x="380" y="1400" as="sourcePoint" />
            <mxPoint x="540" y="1400" as="targetPoint" />
          </mxGeometry>
        </mxCell>
        <mxCell id="XxR-sLYArLXXmIyx7Kuv-47" value="1" style="edgeLabel;resizable=0;html=1;align=left;verticalAlign=bottom;labelBackgroundColor=none;rounded=0;sketch=1;curveFitting=1;jiggle=2;" connectable="0" vertex="1" parent="XxR-sLYArLXXmIyx7Kuv-46">
          <mxGeometry x="-1" relative="1" as="geometry" />
        </mxCell>
        <mxCell id="XxR-sLYArLXXmIyx7Kuv-48" value="&lt;p style=&quot;margin:0px;margin-top:4px;text-align:center;&quot;&gt;&lt;i&gt;&lt;b&gt;IScheduler&lt;/b&gt;&lt;/i&gt;&lt;/p&gt;&lt;hr size=&quot;1&quot;&gt;&lt;p style=&quot;margin:0px;margin-left:4px;&quot;&gt;&lt;br&gt;&lt;/p&gt;&lt;hr size=&quot;1&quot;&gt;&lt;p style=&quot;border-color: var(--border-color); margin: 0px 0px 0px 4px;&quot;&gt;+ run(): Type&lt;/p&gt;&lt;p style=&quot;border-color: var(--border-color); margin: 0px 0px 0px 4px;&quot;&gt;+ taskBefore()&lt;/p&gt;&lt;p style=&quot;border-color: var(--border-color); margin: 0px 0px 0px 4px;&quot;&gt;+ taskAfter()&lt;/p&gt;&lt;p style=&quot;border-color: var(--border-color); margin: 0px 0px 0px 4px;&quot;&gt;+ runBefore(）&lt;/p&gt;&lt;p style=&quot;border-color: var(--border-color); margin: 0px 0px 0px 4px;&quot;&gt;+ runAfter()&lt;/p&gt;&lt;p style=&quot;border-color: var(--border-color); margin: 0px 0px 0px 4px;&quot;&gt;+ cancel()&lt;/p&gt;&lt;p style=&quot;border-color: var(--border-color); margin: 0px 0px 0px 4px;&quot;&gt;+ setMode()&lt;/p&gt;" style="verticalAlign=top;align=left;overflow=fill;fontSize=12;fontFamily=Helvetica;html=1;whiteSpace=wrap;hachureGap=4;fontSource=https%3A%2F%2Ffonts.googleapis.com%2Fcss%3Ffamily%3DArchitects%2BDaughter;rounded=0;labelBackgroundColor=none;sketch=1;curveFitting=1;jiggle=2;" vertex="1" parent="1">
          <mxGeometry x="103" y="1281" width="187" height="163" as="geometry" />
        </mxCell>
        <mxCell id="XxR-sLYArLXXmIyx7Kuv-49" value="" style="endArrow=block;dashed=1;endFill=0;endSize=12;html=1;rounded=0;hachureGap=4;fontFamily=Architects Daughter;fontSource=https%3A%2F%2Ffonts.googleapis.com%2Fcss%3Ffamily%3DArchitects%2BDaughter;fontSize=16;exitX=0.5;exitY=0;exitDx=0;exitDy=0;labelBackgroundColor=none;fontColor=default;sketch=1;curveFitting=1;jiggle=2;" edge="1" parent="1" source="XxR-sLYArLXXmIyx7Kuv-20">
          <mxGeometry width="160" relative="1" as="geometry">
            <mxPoint x="342" y="1407" as="sourcePoint" />
            <mxPoint x="291" y="1354" as="targetPoint" />
            <Array as="points">
              <mxPoint x="465" y="1352" />
            </Array>
          </mxGeometry>
        </mxCell>
      </root>
    </mxGraphModel>
  </diagram>
</mxfile>
